ply
format ascii 1.0
element vertex 685
property float32 x
property float32 y
property float32 z
element face 1366
property list uint8 int32 vertex_indices
end_header
-2.74061 1.72204 1.035
-3.15788 1.0072 1.00259
-3.1337 1.12153 1.00945
-3.17628 1.03845 1.03279
-3.08727 0.943813 1.18885
-3.14808 1.10857 0.989673
-3.17237 1.08234 0.996428
-2.14602 0.692752 0.651148
-3.14919 1.05052 0.959024
-3.16629 1.03254 1.05137
-0.169112 1.38053 2.75149
-3.48652 0.0544895 0.250038
-3.11089 1.09658 1.07288
-1.92877 1.05537 0.819398
-3.11211 1.19466 0.699222
-2.32486 0.128294 1.5557
-3.12347 1.11407 0.980403
-2.89359 1.47685 0.608112
-3.15615 1.09005 1.05739
-3.14488 0.998524 1.03397
-3.26942 0.314755 0.876833
-2.93978 1.42519 0.982439
-3.2183 0.659666 0.951063
-3.0524 1.28191 0.979591
-3.19432 0.832714 0.988998
-3.05321 1.1834 1.00461
-2.87438 1.28405 1.39744
-1.65501 2.03986 2.29029
-3.22065 0.926914 1.02595
-2.94502 1.27968 1.1807
-3.29551 0.842011 0.589306
-3.16749 1.1406 0.83386
-3.14179 0.982177 1.12487
-3.23892 0.975849 0.911063
-2.94529 1.08246 0.00717944
-2.91984 0.330913 1.41704
-3.08398 1.13998 1.00493
-3.11907 1.19701 0.943423
-3.16646 0.947786 1.00929
-2.27411 1.25697 0.215654
0.408721 3.47421 -0.144235
-0.860807 2.30384 0.191118
-3.09521 1.18111 1.07992
-3.0407 1.1135 1.24188
-2.85488 0.855272 1.58651
-2.2849 1.37171 2.11716
-3.16917 0.687139 1.21593
-0.976302 -1.35736 -3.03188
2.5188 -0.289195 -0.677463
0.287628 1.55397 -2.69127
-3.14188 0.848586 1.11156
-1.91876 0.559879 1.25924
0.379946 -2.00619 1.4129
-0.908655 -0.0937473 2.43185
-3.16618 1.06283 1.04804
-3.1238 1.0496 1.06856
-3.11644 1.06461 1.16028
-3.12609 1.07149 1.01735
-3.14096 1.0405 1.02735
-0.99432 1.29961 1.5724
-3.046 1.26743 0.822616
-3.19329 1.0023 0.678158
-3.0983 1.11365 0.340462
-3.14722 1.09502 0.944986
-3.11683 1.03912 0.849751
-3.27904 0.697023 0.0932553
-2.99497 0.948116 1.41246
-1.60401 0.293552 2.04318
-2.87482 1.56968 1.2719
-2.3343 1.99447 1.64583
-2.61712 1.58715 1.69846
-1.9288 2.4875 0.654906
-2.39885 1.97862 0.453894
-3.16213 1.0553 0.894671
-3.20319 1.00193 0.824254
-3.29562 0.828294 0.788721
-3.41837 0.536389 0.668396
-2.64555 -0.257824 0.873693
-2.38779 0.186245 -0.29121
-1.74559 -2.64666 -0.533419
-2.58153 1.79424 1.377
-2.29668 2.25882 1.09167
-1.50999 2.67086 1.53685
-3.16457 0.89856 1.06329
-0.507 2.32559 2.09564
-2.9746 1.31455 0.655715
-2.98826 1.35214 0.391213
-2.60538 1.54868 0.276056
-2.92941 0.667536 1.37819
-2.71087 0.531503 1.62468
-2.51007 0.86473 2.02968
-1.91227 0.820879 2.54772
-3.10144 1.13693 0.922536
-2.90145 0.593639 -0.458626
-3.18417 0.974374 0.9501
-3.19291 0.884994 0.901038
-3.27241 0.791299 0.903602
-3.27992 0.664882 0.798668
-3.34062 0.503172 0.906424
-3.17872 0.420371 1.12287
-3.00031 -0.0193414 1.08346
-3.1911 -0.356027 0.603129
-2.31232 -1.32993 -0.112182
-3.3215 -0.867478 -0.421169
-2.48782 -1.50957 -1.95645
-2.62284 -0.776256 0.312955
-2.81386 -0.247252 -1.40621
-3.11964 0.817802 1.25038
-3.42503 0.188238 0.578234
-3.16828 0.719884 1.066
-3.17813 0.565126 1.06724
-2.29194 -0.589433 -0.37517
-1.44171 -1.30067 -1.13711
-1.58454 1.73863 0.451465
-3.09607 1.2574 0.518588
-3.23278 -0.0423091 0.792376
-3.05326 0.698841 1.30552
-3.00758 0.48371 1.2836
-3.01587 0.24746 1.20157
-2.75232 0.0580274 1.30277
-2.923 1.43729 0.792601
-2.80479 1.68787 0.766354
-2.52509 1.94236 0.811334
-3.47672 0.435025 0.290234
-3.4583 0.298542 -0.244733
-3.43999 -0.305434 -0.233226
-3.23474 -0.00885477 -0.864002
-1.76039 -0.34397 -2.37978
-3.13615 1.17743 0.881051
-3.08429 1.17969 0.79647
-3.07626 1.22914 0.885016
-3.04241 1.30625 0.898466
-3.02978 1.38546 0.809379
-2.9699 1.33337 0.960363
-2.98564 1.36156 1.08713
-2.91489 1.50638 1.12441
-2.85432 1.59002 0.969583
-2.99605 1.40979 0.900748
-2.91345 1.4803 0.892231
-2.83294 1.54961 0.795037
-2.97149 0.80966 1.36252
-3.20806 -0.703082 0.130441
-2.90172 -1.175 -0.103882
-2.74984 -1.74968 -0.968896
-3.04128 -1.33448 -0.659173
-2.95495 -1.12492 -1.42914
-2.03527 -2.31101 -1.47351
-1.58496 -1.91418 -2.35545
-0.490803 -2.79197 -1.54654
-0.503473 -2.01332 -2.30516
-2.52934 -0.729213 -1.95162
-1.92211 -0.506164 -1.27208
-2.03128 -1.09086 -2.46041
-1.55839 1.0868 1.3455
-1.27158 1.62356 1.04344
-0.488633 1.96991 1.28152
-1.2519 0.764424 1.80029
-0.497595 0.920671 2.13185
1.59236 -0.209233 2.42999
0.532091 0.396471 2.54255
-3.23859 -0.909165 -0.983885
-1.43187 0.306207 2.75714
-1.12262 1.22336 3.01358
-0.465197 0.33326 3.44942
-2.20074 1.68035 0.216355
-1.93187 2.13645 0.256547
-1.465 2.63683 0.165873
-0.731336 3.30504 0.860012
-1.36997 2.9354 0.834426
-1.90881 1.41133 0.450189
-1.57609 1.40472 0.771991
0.317288 2.43288 0.488372
2.38311 2.16737 -0.830073
0.307527 2.15722 -1.14677
1.40295 2.66009 -0.160684
-0.72788 3.23599 -0.13358
-0.340291 2.49908 -0.562842
-0.291055 2.80177 1.40752
-1.51167 -0.798547 -2.95916
-0.112603 0.0791766 -3.55797
-0.444784 -0.404196 -2.28916
-0.735459 -0.544568 -3.35041
-1.19476 -0.0475381 -2.89094
-0.384676 0.666081 -2.60366
-2.41099 0.779858 -0.142874
-2.34227 0.372207 0.235473
-2.3685 -0.237927 0.155029
-2.32241 0.177019 0.754372
-1.96042 -1.12765 -0.690137
-1.51562 -1.82402 -0.462338
-0.624228 -2.59994 0.465755
-0.694675 -1.96072 -1.02283
0.582027 -2.59891 -0.474094
-1.19405 -2.39745 -0.0341337
-0.611524 -3.37653 -0.479028
-0.385548 -2.32449 -0.310463
0.252784 -2.35798 0.347615
2.36722 -2.06508 0.596811
0.450454 2.32506 -0.335083
1.30301 1.70652 -0.79309
0.211268 3.16866 -1.09433
1.37304 2.78745 -1.47772
2.08941 1.23193 -2.40241
1.03692 0.0822231 -2.33476
2.27927 0.965051 -0.183191
0.811176 1.34992 -1.72814
1.03836 2.21358 -2.31414
1.99996 2.15537 -1.97693
2.77627 1.48905 -1.59182
2.50035 0.318324 -1.72375
1.68671 0.886415 -1.34703
3.30522 0.654681 -0.842957
-2.64205 -1.65109 -0.429345
-2.28763 -2.21182 -0.687248
-2.13565 -1.86827 -0.243297
-1.98228 2.3943 1.51905
-1.69712 2.42189 1.94723
-1.08286 2.5469 1.9798
-1.01194 2.11076 2.49466
-0.921102 2.94642 1.49087
-1.9911 2.05506 1.96164
-1.97018 1.69143 2.25996
-1.5058 1.55535 2.65196
-1.96272 1.26257 2.42757
-1.67464 1.14617 2.76124
-1.58283 0.717317 2.82565
-1.07102 0.598925 3.22986
-0.509331 0.982543 3.18771
0.205367 0.65944 3.20558
0.434508 -0.634171 3.36739
-1.79664 2.64518 1.11884
-0.464804 1.83377 2.46108
-0.325592 1.77809 1.85396
-2.24993 0.96694 2.34394
-2.14408 0.44363 2.14511
-0.88402 1.64989 2.76385
0.173867 0.0160165 3.52037
-0.433563 -0.521702 3.0906
-0.935339 -0.0652545 3.15815
0.950417 0.0131885 3.17521
1.27336 -0.845814 3.02749
2.33505 -1.56903 2.10078
0.801277 -0.977633 1.91201
2.9916 -0.15431 1.10593
1.84472 -0.656869 1.27561
0.0947342 -1.32415 2.63016
1.95547 -0.961436 2.54546
1.27381 -1.98604 2.56413
1.76253 -2.52018 1.56812
1.3569 -2.96524 0.455932
-1.06145 0.384015 2.17198
-0.447009 0.313708 2.29548
0.0142792 0.711139 2.41174
-0.239971 -0.370846 2.40928
-2.59145 0.171755 -0.930929
-1.22474 -3.06669 -0.282663
-1.25595 -3.02535 -1.1667
-1.24278 -2.53481 -1.87104
1.2495 1.43327 -2.88227
0.569802 0.828287 -3.36727
-1.29243 -0.768396 -1.79608
-0.785902 -1.40751 -1.6362
-3.35094 -0.482611 -0.743027
-3.12539 -0.487768 -1.15303
-2.94026 -0.674052 -1.53469
0.053334 0.175136 2.43652
0.620703 -0.33522 2.30493
0.319425 -3.50492 0.198476
0.250533 -3.0508 1.17499
-2.66617 1.18476 1.73251
3.52065 -0.189524 0.00886379
2.86764 -1.16823 0.0226023
2.95371 -1.27519 1.1361
-2.25827 1.74721 1.96084
-0.728609 -3.18548 0.154007
-0.239219 -3.16267 0.670548
-0.186355 -2.56061 0.988068
-0.258269 -3.5467 -0.00615972
0.153463 -3.2451 -0.604207
0.103958 -2.63836 -1.07896
-1.07784 1.97292 0.619027
-0.480095 2.17507 0.681584
-0.223563 2.40485 0.132889
1.23593 -1.4893 1.11232
-0.188181 -1.21993 -2.22213
0.227691 -0.745224 -3.0387
-1.44197 2.14952 0.223144
-0.153687 1.48072 2.24272
-0.473702 1.34213 1.9321
-0.652262 1.59371 1.60167
-0.958374 1.63037 1.31978
-0.92369 1.81566 0.96016
-0.813948 1.08546 1.89578
-0.850664 0.7216 2.07851
0.751748 -0.059422 -3.3189
-0.268148 -3.15527 -1.07311
2.59417 -0.664003 1.88482
2.91156 1.45098 -0.703739
0.0926302 3.18771 0.771651
-1.5693 -1.41811 -2.77661
-1.13308 -1.76871 -2.67033
-0.583731 -1.61764 -2.70902
-0.326788 -1.14599 -3.14621
-1.1155 -2.24449 -2.34962
-0.712318 -2.44529 -2.01993
-0.253544 -2.03609 -1.61047
-1.16265 3.15853 0.297606
-1.08083 2.85069 -0.116929
-0.688064 2.83219 -0.426561
-0.172919 3.27209 -0.535375
-0.62312 2.429 -0.194313
-0.177683 3.45036 0.0598377
-0.613002 3.40124 0.354536
-0.316338 3.36078 0.69203
-0.366869 3.14424 1.1012
-0.0151971 2.87592 1.06816
-0.0484963 2.32505 1.21061
0.3236 2.79241 0.771761
0.838603 2.90146 0.252114
0.517139 3.17055 0.516457
1.03894 3.2333 -0.330772
1.48253 2.94845 -0.79962
0.900844 3.14065 -1.11834
1.91607 2.55137 -1.14234
1.92666 2.48484 -0.498484
2.0863 1.74902 -0.20618
0.596582 2.67049 -1.71951
0.222618 1.95754 -1.95788
1.54449 2.05772 -0.249071
1.00213 2.24509 -0.184442
0.814067 2.03886 -0.711898
0.873118 1.71807 -1.23624
1.29831 1.3119 -1.22906
1.8148 1.25408 -0.785695
2.16438 0.570567 -0.833466
1.194 0.925741 -1.64539
1.6182 0.310879 -1.86835
0.660213 0.73481 -2.16879
0.213027 0.0825398 -2.41255
1.69842 0.512663 -2.71872
2.39217 0.25713 -0.228624
3.14873 0.711443 0.250741
2.3759 -0.501733 0.115695
2.04831 -1.29301 0.319222
1.46561 -2.03708 0.314819
2.44645 0.167229 0.584599
0.10599 2.44681 0.845236
0.153428 3.41387 0.37632
2.29288 2.16672 -1.43742
2.36029 1.77203 -1.8151
2.4591 1.24874 -1.98392
2.2773 0.685156 -2.17356
2.78558 0.864076 -1.61429
3.00357 0.332025 -1.31645
3.25774 -0.101773 -0.740009
2.50134 0.0153001 -1.20003
2.037 1.69932 -2.20359
1.57164 2.00804 -2.32564
1.68873 1.54452 -2.58716
1.44403 2.45125 -1.95749
1.63665 1.04914 -2.8183
1.18515 0.656678 -3.13852
3.03458 -0.682487 -0.439489
2.67494 1.85256 -1.18347
-0.196049 2.39046 1.69541
-0.589812 2.66185 1.75964
3.04463 1.16569 -1.1914
3.28989 -0.741472 0.107246
3.44684 -0.37631 0.655929
3.14637 -1.12206 0.570704
2.75867 -1.59852 0.461126
3.18048 -0.748839 1.01967
2.72305 -1.82276 1.02194
2.27246 -2.26888 1.22282
1.85969 -2.54248 0.71792
2.705 -1.60193 1.60254
1.44647 -2.88596 1.11065
0.870718 -2.69665 1.84122
0.873357 -3.2457 0.894335
2.12991 -2.07202 1.79621
1.64379 -2.28318 2.14389
1.80835 -1.73531 2.37942
1.45535 -1.42415 2.81623
0.745353 -1.57002 2.83503
0.535299 -2.0928 2.25777
3.23651 0.226239 0.655926
2.89235 -0.850051 1.46973
2.78552 -0.354652 1.52728
2.3825 -0.0217565 1.17976
2.24297 -0.234565 1.70461
2.12182 -0.522857 2.19772
1.60931 -0.422037 1.82465
1.33175 -0.933899 1.54936
2.24973 -0.404516 0.712931
2.65642 -1.14585 1.78917
2.36539 -1.01305 2.21251
1.20152 1.85949 -2.62633
0.670545 1.90672 -2.55786
0.748494 1.55125 -2.92426
0.936807 1.13425 -3.16716
0.388975 1.20339 -3.05902
-0.097098 0.745875 -3.22281
-0.108912 1.14327 -2.77397
-0.668897 0.338037 -3.15945
0.122235 0.806736 -2.3657
0.363227 1.19607 -2.03541
1.14552 -0.325285 2.11796
1.08088 0.115537 2.5441
1.10268 -2.34476 2.18907
1.34868 -2.57635 1.83005
1.16806 -2.89848 1.51116
0.667183 -2.91681 1.43181
0.221909 -2.55577 1.4645
0.582096 2.18156 -2.17783
0.841649 2.52628 -2.0636
1.02499 2.74123 -1.73357
0.776755 2.96158 -1.47692
0.334961 2.89027 -1.42607
-0.150601 2.67374 -1.11966
0.199791 2.42908 -1.54682
0.299972 -2.2426 1.84452
0.328791 -1.61969 1.90308
0.765691 -1.54551 1.49006
0.819978 -1.91014 1.01763
0.368925 -2.23385 0.891077
0.790822 -2.16265 0.486336
1.08637 -2.47445 -0.0382791
0.826031 -3.11826 -0.080642
1.24032 -1.8344 0.730668
1.68542 -1.4591 0.743302
1.98547 -0.959938 0.795728
1.63614 -1.14464 1.16851
0.299206 2.01783 -1.54616
0.493846 1.66717 -1.74842
0.641017 2.40292 0.115093
0.206785 2.35648 0.0347831
0.0156526 2.3528 -0.357356
0.251439 2.31583 -0.733911
1.30851 -0.226714 2.873
1.05006 -0.458046 3.20887
0.829623 -0.898275 3.236
0.332479 -1.10828 3.08835
-0.151841 -0.946637 2.92187
-0.04785 -0.864443 2.40906
1.04488 -1.25758 3.02067
0.307976 -1.17155 2.17551
1.60395 -0.607885 2.73447
0.676355 -0.281326 3.32631
0.540997 0.144233 3.29916
0.746724 0.356314 2.94704
0.381305 -0.731287 2.29805
0.18688 -0.343905 2.33147
-0.0222049 -0.658528 3.26737
-0.245691 -0.258902 3.4768
0.488093 0.714993 2.8587
0.116469 1.02021 2.89779
0.640904 3.24854 0.12297
0.579248 3.36928 -0.690627
1.58602 -1.02315 2.80665
1.79603 -1.31758 2.63497
2.12591 -1.30297 2.38542
0.152212 -0.383104 3.49958
1.0472 2.54803 0.119301
1.11394 2.91027 -0.0393522
0.621774 2.69399 0.520152
0.645185 -2.39558 2.00417
-0.103633 0.92999 3.23378
-0.142314 0.557821 3.37563
0.647088 -0.411327 -2.60989
0.0994895 -0.63435 -2.45015
0.116961 -1.13655 -2.67042
-0.839893 0.310241 -2.60823
-0.342131 0.140193 -2.42136
-1.07226 -0.200673 -2.26046
3.47255 0.325962 -0.339573
3.25367 0.864886 -0.301724
2.82694 1.19643 0.016806
2.55179 0.747607 0.305805
2.02283 0.334153 -1.36417
1.78872 -1.69006 0.341407
1.94726 -2.16299 0.346088
1.59659 -2.54856 0.216387
2.27285 -1.72783 0.247565
2.41897 -1.33356 0.0198704
2.29966 -0.937992 0.200462
2.56822 -0.833889 -0.22152
2.46657 -0.43288 -0.287446
2.33808 -0.115917 -0.0445642
2.35709 0.230006 0.184112
2.36004 -0.171904 0.364476
2.70128 1.85594 -0.727322
2.61643 1.58002 -0.282608
2.35757 1.9198 -0.48542
2.05809 2.14229 -0.316666
-2.35775 0.0113411 1.14634
1.76181 2.52665 -1.60037
-0.00668695 1.13525 2.44363
3.421 0.28638 0.167835
3.40877 -0.0643111 0.386947
1.90873 0.852308 -2.53343
1.96582 0.444425 -2.37386
1.55096 0.131547 -2.39694
2.11467 0.316099 -1.9641
1.28279 0.191596 -2.86908
-1.35654 2.27656 2.13041
0.189793 -1.55635 2.29387
0.373622 -1.63109 2.65918
0.679679 -1.90508 2.59879
-0.371108 2.91733 -0.744807
-0.699462 1.35273 3.03573
-0.75548 -3.14393 -1.26368
-0.95836 -3.21758 -0.808283
-0.985031 -2.81835 -1.5576
-1.46175 -2.78458 -1.52597
-1.71248 -2.76992 -1.05327
-1.6759 -2.43324 -1.73996
-2.01034 -2.02213 -1.97601
-2.36583 -1.88926 -1.58236
-1.5253 -2.31691 -2.15293
-2.02745 -1.61041 -2.32157
-1.35332 -3.0012 -0.718595
-2.73272 -1.55863 -1.52676
-2.37625 -2.14395 -1.16414
-2.07443 -2.4723 -1.01545
-2.74395 -1.22212 -1.78218
-2.46404 -1.11638 -2.05762
-2.24713 -0.816195 -2.24024
-2.15603 -0.33203 -2.00169
-1.94073 -0.694829 -2.47848
-1.64315 -0.371429 -1.86
-2.53563 -0.321386 -1.75542
-2.3085 -0.159575 -1.31549
-2.21183 -0.385112 -0.851734
-1.94565 -0.735766 -0.894744
-1.66329 -0.897266 -1.23465
-1.36156 -1.06825 -1.49258
-0.993275 -1.04621 -1.69466
-0.824461 -0.667021 -2.02635
-0.585503 -1.10018 -1.96125
-0.340466 -1.53304 -1.84985
-1.10524 -1.37307 -1.37134
-1.14276 -1.69366 -0.956171
-1.0077 -2.08551 -0.552756
-0.814018 -1.67288 -1.30842
-0.347076 -0.816209 -2.18896
-1.67376 -0.652671 -1.56339
-0.206378 -1.67231 -2.26109
-0.230487 -1.98655 -2.00982
-1.49253 -1.5222 -0.77011
-1.83704 -1.50708 -0.478385
-2.34897 -0.18466 -0.500032
-2.95472 -1.4636 -1.18912
0.295049 1.83098 -2.36243
0.140229 1.43695 -2.3082
1.02633 0.259549 -3.21265
0.616685 0.373269 -3.3821
0.336314 0.0281907 -3.48834
0.0398695 -0.397861 -3.38969
0.171466 0.452267 -3.44725
1.017 -0.0978998 -3.00215
0.70081 -0.399844 -3.04582
-0.391407 -0.254969 -3.42322
-0.791852 -0.0959178 -3.25763
-0.303634 -0.698038 -3.34553
-1.10841 -0.393712 -3.15828
-1.03777 -0.882698 -3.15448
-1.44982 -0.38366 -2.90983
-1.43222 -0.151338 -2.55941
-0.646819 -0.921431 -3.24106
-1.95496 -2.26938 -0.375673
-1.59841 -2.42979 -0.187777
1.67698 1.62694 -0.468746
2.01986 1.34183 -0.392004
2.08957 0.94886 -0.600746
1.91378 0.882214 -0.984767
2.26825 0.608737 -0.426276
2.2758 0.252968 -0.613485
2.3149 0.596303 -0.0272294
0.645261 -2.36604 0.0870002
0.190679 -2.42482 -0.169809
-0.203951 -2.44397 0.146789
-0.649044 -2.40693 0.0529396
0.168174 -2.42751 -0.650818
-0.263516 -2.27173 -0.933594
-0.960702 -2.60202 0.232732
-0.130474 -2.36685 0.584855
0.383007 -2.73933 -0.80028
0.575421 -3.0627 -0.524437
0.408566 -3.39558 -0.245113
0.117565 -3.01243 -0.930776
0.0143678 -3.48602 -0.304666
-0.228843 -3.37253 -0.605279
-0.107799 -2.35139 -1.33856
-0.28873 -2.45184 -1.71588
-0.577233 -2.16094 -0.659903
3.20869 1.09094 -0.707693
3.06611 1.27186 -0.338663
2.86535 0.516743 0.581601
2.87161 0.214274 0.899764
-1.96626 0.242255 1.79152
-1.63909 0.54684 1.65027
-2.02552 -0.271878 -1.60609
-0.577303 -3.34005 -0.88314
0.355677 -3.38592 0.741976
0.734199 -3.32135 0.416605
0.43334 0.0136414 2.42269
1.26738 -0.681798 1.89895
-2.22528 0.782682 0.241461
1.20198 2.04825 -0.516306
-0.44289 -0.697877 2.66408
-0.74398 -0.359031 2.78045
-0.0328761 0.419838 -2.39435
0.383877 0.461734 -2.33589
0.624328 0.123779 -2.36665
2.86511 -0.196443 -0.98528
-0.0964854 -0.184498 -2.34084
1.31564 1.03316 -3.06501
0.858569 -0.626171 2.12682
-0.721234 -0.0267369 -2.39719
-0.187447 -1.44832 -2.63595
1.04802 -3.12762 0.255111
1.25914 -2.82198 0.0868664
2.29277 1.41125 -0.0907761
2.09145 -0.308064 1.31042
-2.38001 -0.185989 0.56504
3.03348 0.753662 -1.28905
0.0291048 -3.42245 0.485771
-0.345657 -3.37712 0.347653
1.50359 0.641554 -1.6355
1.1554 0.541376 -2.04404
2.41408 -1.9241 1.47786
0.847453 0.961362 -1.87367
-2.40866 0.390335 1.84799
1.11654 -1.29842 1.47784
0.205938 3.45715 -0.514127
-3.37239 -0.340453 0.234145
-1.8 0.414186 2.41937
0.937778 3.18569 -0.718772
3.32384 -0.763185 0.639794
-1.35463 0.104687 2.36425
-1.20205 -0.0414109 2.7249
2.93325 1.54765 -1.09981
-0.832127 -2.0254 -2.55388
0.627688 -1.34361 1.82459
3.33385 -0.485526 -0.221829
3.43831 -0.130521 -0.381042
-2.80777 -0.526781 0.5953
-3.41433 -0.00742595 -0.503261
-3.157 0.301302 -0.601457
1.91191 -2.51203 1.15403
-1.2848 2.91401 1.25833
-0.949022 3.08066 1.11288
-2.37821 -0.624542 0.0227944
-1.07979 3.18118 0.693835
3.20359 0.259536 -0.951717
-0.591192 -0.0538339 3.38472
-1.35716 1.9069 2.52545
0.320156 -0.303216 -2.40554
2.56947 0.675277 -1.89671
-0.509108 -0.0724401 2.38979
2.14435 -0.731816 0.507042
-0.122213 2.3147 0.524951
1.12827 -1.64558 2.7277
-0.134007 -2.86243 -1.33994
-2.55192 1.14864 -0.0569701
-1.32265 -1.15726 -2.96521
-1.74466 -1.05327 -2.74548
0.991715 -0.203491 -2.6146
-1.14174 0.256082 3.03143
-1.64269 2.78875 0.530986
1.21913 -3.05263 0.823649
2.17488 -2.32354 0.836907
-2.20963 -1.00635 -0.367911
-0.590672 -3.01257 0.506292
-1.0767 -2.97227 0.0911641
0.0638111 -2.27799 1.18399
-0.302176 0.402274 -3.36087
-2.92274 0.03103 -1.12621
-2.52625 0.444454 -0.605419
0.895862 -2.75848 -0.264202
-0.68642 0.65332 3.34079
-0.43775 0.646496 -3.01234
-0.11648 -2.9654 1.01
1.62833 2.83922 -1.16423
1.31217 2.94972 -0.43077
3  147 516 518
3  515 518 516
3  92 63 31
3  73 31 63
3  42 56 12
3  42 43 56
3  19 55 32
3  29 43 42
3  232 287 231
3  288 287 232
3  16 36 2
3  73 63 8
3  625 211 366
3  595 366 211
3  636 91 225
3  55 58 57
3  55 19 58
3  97 22 98
3  131 132 137
3  133 131 137
3  19 83 38
3  44 89 88
3  83 24 28
3  38 83 28
3  156 250 293
3  38 28 94
3  95 94 28
3  303 300 147
3  36 12 2
3  57 2 12
3  636 225 161
3  94 73 8
3  228 467 466
3  243 371 387
3  72 81 122
3  621 620 249
3  120 137 132
3  55 57 12
3  86 17 85
3  87 17 86
3  293 157 292
3  624 187 185
3  108 101 11
3  108 115 101
3  157 287 288
3  133 137 21
3  138 21 137
3  24 95 28
3  75 95 96
3  75 96 97
3  1 58 19
3  118 20 99
3  24 50 109
3  22 110 98
3  97 96 22
3  50 24 83
3  16 5 63
3  8 63 5
3  36 42 12
3  36 25 42
3  410 411 377
3  72 165 71
3  154 153 59
3  0 136 121
3  139 121 136
3  283 423 428
3  332 210 335
3  185 187 7
3  215 230 82
3  570 79 569
3  570 569 189
3  226 162 227
3  108 76 20
3  26 66 43
3  29 26 43
3  521 551 143
3  70 26 68
3  80 70 68
3  117 110 46
3  117 46 116
3  313 347 298
3  313 311 347
3  43 4 56
3  8 57 58
3  8 58 1
3  56 55 12
3  56 32 55
3  56 4 32
3  123 76 108
3  221 222 223
3  5 2 57
3  5 16 2
3  8 5 57
3  223 222 224
3  0 122 80
3  73 74 31
3  1 19 38
3  510 511 602
3  510 602 295
3  110 22 109
3  335 629 631
3  653 306 312
3  30 61 75
3  30 75 97
3  74 61 31
3  61 14 31
3  130 37 128
3  92 128 37
3  96 95 24
3  96 24 22
3  17 139 120
3  85 17 120
3  185 78 186
3  531 530 601
3  531 601 151
3  95 74 33
3  95 33 94
3  121 87 72
3  121 72 122
3  99 20 98
3  110 99 98
3  76 30 97
3  463 684 174
3  133 21 134
3  129 130 128
3  0 80 68
3  407 449 159
3  407 159 605
3  522 517 143
3  255 570 193
3  19 32 83
3  4 50 32
3  83 32 50
3  85 60 14
3  129 14 60
3  324 493 328
3  620 378 670
3  174 324 328
3  29 42 134
3  125 124 11
3  299 665 666
3  259 555 361
3  118 117 35
3  118 35 119
3  225 224 162
3  141 103 125
3  381 379 380
3  92 16 63
3  129 31 14
3  36 37 25
3  37 16 92
3  36 16 37
3  142 144 103
3  164 169 113
3  78 185 184
3  586 192 582
3  579 582 192
3  488 345 489
3  528 666 178
3  165 164 113
3  72 164 165
3  33 74 73
3  33 73 94
3  1 38 94
3  1 94 8
3  75 61 74
3  75 74 95
3  513 257 515
3  355 48 614
3  576 48 355
3  20 76 98
3  97 98 76
3  117 99 110
3  118 99 117
3  117 116 88
3  50 107 46
3  109 50 46
3  72 71 81
3  232 231 84
3  218 84 231
3  365 177 364
3  572 622 204
3  371 638 369
3  331 199 332
3  23 37 130
3  25 37 23
3  119 100 118
3  118 100 20
3  339 500 499
3  116 107 140
3  50 4 107
3  440 229 447
3  7 187 51
3  115 20 100
3  681 401 402
3  681 402 183
3  116 46 107
3  110 109 46
3  133 134 23
3  353 625 352
3  24 109 22
3  134 42 23
3  25 23 42
3  348 495 207
3  205 335 631
3  612 338 611
3  390 296 395
3  579 196 580
3  76 123 30
3  65 30 123
3  323 495 348
3  85 14 114
3  61 62 114
3  61 114 14
3  62 86 114
3  85 114 86
3  533 151 534
3  608 330 329
3  539 543 261
3  539 305 543
3  674 255 193
3  207 495 359
3  609 610 237
3  609 253 610
3  667 468 613
3  26 44 66
3  140 66 44
3  128 92 31
3  129 128 31
3  88 116 140
3  66 4 43
3  66 140 107
3  66 107 4
3  401 400 402
3  455 10 496
3  124 65 123
3  124 123 11
3  124 93 65
3  551 144 143
3  200 634 309
3  291 281 280
3  502 658 351
3  0 135 136
3  120 138 137
3  129 60 130
3  23 130 131
3  133 23 131
3  131 130 60
3  136 135 21
3  60 132 131
3  85 132 60
3  85 120 132
3  21 135 134
3  29 134 135
3  29 68 26
3  29 135 68
3  135 0 68
3  140 44 88
3  120 139 138
3  136 21 138
3  139 136 138
3  277 267 590
3  121 139 17
3  121 17 87
3  0 121 122
3  13 7 51
3  81 71 230
3  679 192 587
3  679 587 427
3  306 653 168
3  173 331 432
3  287 10 231
3  235 231 10
3  119 77 100
3  499 360 339
3  289 288 232
3  308 176 508
3  308 508 309
3  210 628 335
3  391 392 244
3  402 400 49
3  273 45 70
3  496 10 287
3  157 496 287
3  416 322 417
3  125 103 262
3  119 494 77
3  187 77 494
3  255 79 570
3  255 520 79
3  515 516 146
3  77 115 100
3  104 521 517
3  484 660 343
3  430 343 660
3  552 397 413
3  391 389 390
3  491 492 490
3  266 451 450
3  267 604 427
3  102 212 142
3  584 673 674
3  274 674 673
3  603 268 378
3  186 550 111
3  652 186 111
3  253 609 443
3  442 443 609
3  274 277 194
3  591 194 277
3  511 194 602
3  362 485 271
3  367 362 271
3  79 523 569
3  183 402 404
3  160 103 144
3  338 612 613
3  262 160 263
3  324 321 323
3  531 106 530
3  264 530 106
3  556 557 560
3  378 604 603
3  665 178 666
3  542 541 191
3  448 239 447
3  378 411 410
3  670 378 410
3  512 304 257
3  616 361 360
3  339 360 361
3  219 314 177
3  219 651 314
3  198 330 437
3  87 164 72
3  196 578 425
3  217 365 84
3  236 163 467
3  236 453 163
3  175 309 311
3  175 308 309
3  440 447 439
3  169 164 39
3  87 39 164
3  13 169 39
3  236 228 448
3  104 525 524
3  170 154 113
3  122 81 80
3  80 81 69
3  170 153 154
3  13 153 170
3  13 170 169
3  169 170 113
3  41 282 310
3  471 472 618
3  310 436 176
3  282 436 310
3  566 528 178
3  566 127 528
3  456 347 40
3  311 40 347
3  536 260 537
3  104 524 521
3  161 225 668
3  226 668 225
3  269 26 70
3  433 205 405
3  189 193 570
3  542 193 189
3  242 450 445
3  491 596 476
3  581 190 584
3  65 93 34
3  184 34 93
3  558 179 556
3  676 179 558
3  152 666 528
3  442 609 237
3  254 648 677
3  126 677 648
3  274 627 277
3  608 328 571
3  608 571 199
3  201 359 495
3  219 650 651
3  115 108 20
3  30 62 61
3  30 65 62
3  65 34 62
3  330 608 199
3  11 123 108
3  463 456 320
3  430 429 343
3  324 172 493
3  514 146 523
3  446 458 240
3  399 258 398
3  218 217 84
3  218 504 217
3  165 113 286
3  238 163 655
3  195 582 579
3  343 479 482
3  343 429 479
3  551 160 144
3  551 145 160
3  261 540 536
3  189 569 214
3  189 214 549
3  289 232 155
3  476 475 341
3  476 341 477
3  77 187 624
3  449 239 448
3  419 326 417
3  41 281 282
3  290 155 291
3  406 266 617
3  366 297 641
3  59 156 292
3  577 477 488
3  577 488 340
3  506 245 441
3  506 441 383
3  165 286 166
3  165 166 71
3  634 311 309
3  40 311 634
3  481 249 374
3  413 206 414
3  41 280 281
3  539 547 305
3  262 103 160
3  415 359 201
3  212 143 144
3  555 554 361
3  502 209 658
3  478 209 502
3  49 400 398
3  429 283 428
3  191 541 543
3  219 177 365
3  69 81 215
3  295 663 148
3  262 263 126
3  186 78 550
3  621 249 481
3  292 157 288
3  322 683 321
3  322 201 683
3  215 82 216
3  330 199 331
3  252 496 157
3  82 219 217
3  69 215 220
3  215 216 220
3  247 662 382
3  381 247 382
3  196 424 585
3  153 156 59
3  27 221 220
3  225 91 224
3  283 431 633
3  627 275 626
3  221 223 45
3  223 224 91
3  621 426 679
3  81 230 215
3  591 589 295
3  559 560 667
3  468 667 560
3  409 408 380
3  280 41 286
3  166 286 41
3  363 641 490
3  297 490 641
3  241 379 381
3  236 467 228
3  480 197 482
3  480 482 479
3  644 367 270
3  292 288 289
3  575 577 340
3  601 530 527
3  150 527 530
3  461 452 453
3  236 461 453
3  618 472 180
3  208 366 641
3  588 590 267
3  599 632 234
3  206 396 357
3  265 252 251
3  466 227 10
3  466 10 455
3  480 344 481
3  480 481 374
3  409 410 377
3  181 565 568
3  286 113 280
3  423 422 52
3  327 552 413
3  376 670 410
3  298 347 319
3  298 319 317
3  637 320 457
3  315 317 346
3  298 317 315
3  583 191 305
3  583 305 592
3  251 252 157
3  279 583 592
3  279 592 663
3  644 362 367
3  467 227 466
3  181 564 565
3  264 106 263
3  222 162 224
3  283 422 423
3  200 457 634
3  452 229 441
3  430 244 431
3  205 631 405
3  407 605 266
3  44 90 89
3  44 269 90
3  529 127 473
3  529 473 260
3  260 473 537
3  561 181 563
3  408 247 380
3  558 556 555
3  341 497 385
3  341 385 597
3  359 206 357
3  205 332 335
3  411 412 377
3  160 264 263
3  145 264 160
3  321 324 684
3  174 684 324
3  532 531 151
3  194 591 602
3  295 602 591
3  442 452 441
3  269 45 90
3  356 202 350
3  26 269 44
3  326 413 414
3  574 573 334
3  144 142 212
3  70 45 269
3  199 571 333
3  248 409 380
3  13 51 153
3  53 659 251
3  508 200 309
3  220 273 69
3  273 70 69
3  80 69 70
3  221 273 220
3  221 45 273
3  493 172 492
3  442 441 245
3  443 442 245
3  576 355 334
3  559 503 554
3  336 478 502
3  628 478 336
3  333 573 574
3  349 356 350
3  278 586 589
3  365 364 84
3  113 154 280
3  310 176 308
3  650 168 651
3  661 282 281
3  227 162 509
3  358 357 396
3  205 331 332
3  446 240 438
3  249 376 374
3  156 293 292
3  235 218 231
3  289 155 290
3  157 293 251
3  392 431 244
3  154 291 280
3  162 222 235
3  472 611 338
3  290 154 59
3  333 210 332
3  614 354 654
3  474 654 354
3  154 290 291
3  363 349 208
3  432 433 327
3  436 198 437
3  162 226 225
3  668 238 640
3  297 491 490
3  569 523 213
3  440 240 444
3  637 684 320
3  463 320 684
3  167 313 314
3  255 194 511
3  519 299 152
3  565 47 568
3  47 665 299
3  300 47 299
3  421 445 505
3  421 643 445
3  188 672 533
3  620 670 249
3  423 424 425
3  651 167 314
3  681 471 403
3  404 405 337
3  166 307 306
3  166 41 307
3  41 310 307
3  307 310 308
3  307 308 175
3  416 201 322
3  312 306 175
3  307 175 306
3  312 175 311
3  312 311 313
3  459 381 382
3  167 312 313
3  332 199 333
3  323 348 172
3  684 637 321
3  314 315 177
3  589 279 663
3  295 589 663
3  315 314 298
3  313 298 314
3  449 448 228
3  177 315 316
3  281 155 316
3  631 629 337
3  207 349 348
3  422 421 52
3  209 353 352
3  217 219 365
3  192 679 578
3  192 578 579
3  635 125 11
3  681 676 401
3  387 386 296
3  595 475 596
3  77 101 115
3  296 386 394
3  383 441 444
3  401 259 400
3  562 182 564
3  572 204 573
3  275 603 626
3  183 404 611
3  418 417 200
3  418 437 173
3  79 520 514
3  333 572 573
3  400 399 398
3  525 150 524
3  599 600 51
3  361 554 503
3  395 296 394
3  281 316 346
3  315 346 316
3  385 497 498
3  479 428 344
3  479 344 480
3  581 580 190
3  389 296 390
3  579 578 196
3  348 349 363
3  384 465 420
3  384 420 421
3  420 52 421
3  371 272 386
3  597 385 598
3  597 598 345
3  445 450 443
3  445 443 245
3  209 355 353
3  573 204 575
3  498 497 270
3  348 363 172
3  351 350 202
3  592 305 593
3  659 265 251
3  253 265 659
3  246 390 395
3  340 48 576
3  207 356 349
3  356 358 202
3  392 606 242
3  392 242 633
3  367 271 369
3  503 339 361
3  455 496 252
3  206 397 396
3  207 357 356
3  356 357 358
3  173 330 331
3  207 359 357
3  469 180 615
3  428 425 344
3  364 232 84
3  364 155 232
3  658 209 352
3  155 364 316
3  177 316 364
3  474 354 645
3  326 419 413
3  67 636 639
3  67 639 250
3  671 480 374
3  485 484 483
3  485 483 271
3  395 394 241
3  652 111 672
3  326 416 417
3  462 463 174
3  462 174 329
3  243 387 388
3  303 304 642
3  149 642 304
3  268 412 411
3  652 672 102
3  485 342 484
3  418 200 508
3  268 411 378
3  248 410 409
3  248 376 410
3  379 248 380
3  360 358 258
3  529 601 527
3  545 601 529
3  173 432 419
3  574 334 478
3  210 478 628
3  246 395 460
3  180 473 618
3  493 492 325
3  388 623 393
3  189 549 548
3  385 243 598
3  441 440 444
3  318 463 462
3  318 456 463
3  391 606 392
3  441 229 440
3  434 462 329
3  319 347 456
3  408 384 507
3  247 408 507
3  371 386 387
3  396 398 258
3  319 456 318
3  319 318 464
3  345 388 393
3  326 414 415
3  415 414 359
3  658 352 350
3  396 397 398
3  506 505 245
3  445 245 505
3  458 444 240
3  398 397 49
3  439 447 239
3  331 205 433
3  285 563 302
3  259 558 555
3  401 558 259
3  677 126 263
3  649 376 248
3  345 393 489
3  240 439 438
3  633 431 392
3  553 404 402
3  553 402 49
3  285 557 563
3  374 376 649
3  423 52 424
3  583 279 582
3  432 331 433
3  149 546 301
3  608 329 328
3  174 328 329
3  612 611 404
3  391 406 606
3  158 406 391
3  414 206 359
3  13 39 607
3  13 607 7
3  405 404 553
3  415 201 416
3  415 416 326
3  418 419 417
3  418 173 419
3  423 425 428
3  565 178 665
3  538 536 537
3  565 665 47
3  509 162 235
3  51 494 15
3  124 648 93
3  451 265 253
3  407 438 239
3  429 428 479
3  195 580 581
3  158 446 438
3  548 549 188
3  168 653 651
3  546 547 539
3  546 149 547
3  358 396 258
3  540 535 536
3  196 425 424
3  588 267 427
3  278 588 587
3  564 178 565
3  566 178 564
3  484 343 483
3  450 617 266
3  227 680 226
3  405 631 337
3  419 432 327
3  419 327 413
3  512 510 148
3  210 574 478
3  386 272 394
3  394 272 375
3  272 372 375
3  272 370 372
3  413 397 206
3  282 435 436
3  388 389 623
3  388 387 389
3  438 439 239
3  435 198 436
3  240 440 439
3  406 407 266
3  158 438 407
3  158 407 406
3  442 237 452
3  417 322 200
3  437 330 173
3  368 638 371
3  243 368 371
3  385 368 243
3  385 498 368
3  571 325 572
3  152 299 666
3  198 329 330
3  506 384 505
3  507 384 506
3  421 505 384
3  377 465 408
3  409 377 408
3  158 391 390
3  158 390 446
3  446 390 246
3  471 618 473
3  246 458 446
3  283 633 422
3  457 320 40
3  456 40 320
3  393 342 489
3  434 198 435
3  488 487 340
3  454 228 455
3  454 455 252
3  504 218 656
3  443 451 253
3  443 450 451
3  59 292 289
3  453 452 237
3  246 460 459
3  246 459 458
3  434 329 198
3  408 465 384
3  360 202 358
3  499 202 360
3  449 228 454
3  449 454 159
3  159 454 252
3  159 252 265
3  637 322 321
3  388 598 243
3  388 345 598
3  460 241 381
3  460 395 241
3  460 381 459
3  452 461 229
3  447 229 461
3  634 457 40
3  447 461 236
3  447 236 448
3  607 39 664
3  406 617 606
3  412 465 377
3  412 52 420
3  412 420 465
3  464 318 462
3  464 462 434
3  171 464 434
3  435 171 434
3  317 319 464
3  317 464 171
3  228 466 455
3  643 422 633
3  562 564 181
3  294 556 560
3  500 502 351
3  336 502 500
3  271 483 370
3  515 257 518
3  469 470 284
3  544 469 284
3  351 658 350
3  369 271 370
3  622 491 476
3  622 476 204
3  150 526 527
3  525 526 150
3  285 302 470
3  469 285 470
3  293 250 251
3  421 422 643
3  621 679 427
3  621 427 620
3  471 567 182
3  471 473 567
3  640 161 668
3  630 379 241
3  491 325 492
3  491 297 596
3  574 210 333
3  494 119 15
3  89 15 119
3  180 469 544
3  538 539 261
3  478 355 209
3  334 355 478
3  389 387 296
3  393 623 244
3  393 244 430
3  426 481 344
3  426 344 425
3  491 622 325
3  572 325 622
3  587 588 427
3  370 482 197
3  372 370 197
3  629 203 613
3  629 613 337
3  563 557 561
3  483 343 482
3  370 483 482
3  486 362 48
3  645 270 474
3  497 474 270
3  571 572 333
3  270 645 644
3  486 342 485
3  362 486 485
3  363 490 172
3  492 172 490
3  48 487 486
3  340 487 48
3  639 636 161
3  525 152 526
3  51 187 494
3  119 35 89
3  88 89 35
3  88 35 117
3  545 151 601
3  474 497 475
3  341 475 497
3  368 270 367
3  368 498 270
3  487 489 342
3  489 487 488
3  375 630 241
3  394 375 241
3  253 659 610
3  53 610 659
3  430 431 429
3  183 611 472
3  216 217 504
3  82 217 216
3  372 630 375
3  283 429 431
3  504 27 216
3  220 216 27
3  59 289 290
3  437 176 436
3  418 508 176
3  418 176 437
3  509 235 10
3  227 509 10
3  520 256 514
3  507 506 383
3  595 297 366
3  146 516 517
3  513 515 146
3  513 146 514
3  256 512 513
3  513 512 257
3  595 211 475
3  604 378 620
3  541 112 540
3  214 212 102
3  214 102 549
3  514 256 513
3  147 299 519
3  518 303 147
3  257 303 518
3  541 540 543
3  632 90 234
3  517 521 143
3  534 112 188
3  79 514 523
3  524 150 264
3  524 264 145
3  336 500 501
3  336 501 629
3  188 533 534
3  182 567 566
3  264 150 530
3  521 145 551
3  302 568 47
3  302 47 301
3  535 112 534
3  529 527 127
3  528 127 527
3  526 528 527
3  373 248 379
3  649 248 373
3  679 426 578
3  544 284 538
3  542 189 541
3  104 519 525
3  51 15 599
3  632 599 15
3  89 632 15
3  525 519 152
3  517 516 104
3  104 516 519
3  539 538 284
3  539 284 546
3  147 519 516
3  535 545 260
3  521 524 145
3  533 532 151
3  536 535 260
3  534 545 535
3  300 299 147
3  537 544 538
3  547 149 304
3  261 536 538
3  526 152 528
3  545 529 260
3  540 112 535
3  300 301 47
3  534 151 545
3  214 213 212
3  213 143 212
3  213 522 143
3  334 573 575
3  680 163 238
3  305 191 543
3  510 295 148
3  257 304 303
3  339 503 501
3  501 500 339
3  203 501 503
3  203 629 501
3  261 543 540
3  594 542 191
3  587 192 586
3  587 586 278
3  590 588 278
3  591 590 278
3  111 550 532
3  213 523 522
3  523 146 522
3  522 146 517
3  548 112 541
3  541 189 548
3  548 188 112
3  553 433 405
3  327 433 553
3  327 553 552
3  552 553 49
3  552 49 397
3  612 404 337
3  337 613 612
3  294 560 559
3  555 556 294
3  566 567 127
3  567 473 127
3  403 182 562
3  403 471 182
3  561 562 181
3  180 544 537
3  616 258 399
3  473 180 537
3  556 179 557
3  361 616 399
3  555 294 554
3  559 554 294
3  48 362 614
3  354 614 362
3  563 568 302
3  569 213 214
3  563 181 568
3  564 182 566
3  242 643 633
3  324 323 172
3  328 493 325
3  328 325 571
3  247 507 662
3  584 674 193
3  581 584 193
3  585 276 190
3  196 585 580
3  625 366 352
3  662 507 383
3  382 662 444
3  662 383 444
3  615 180 472
3  352 366 208
3  350 352 208
3  349 350 208
3  476 596 475
3  575 576 334
3  453 237 655
3  628 336 629
3  335 628 629
3  204 476 477
3  204 477 577
3  204 577 575
3  591 278 589
3  297 595 596
3  675 52 412
3  424 52 675
3  195 583 582
3  542 581 193
3  195 581 542
3  208 641 363
3  467 163 680
3  676 558 401
3  453 655 163
3  589 586 279
3  582 279 586
3  184 664 34
3  607 664 184
3  511 520 255
3  511 256 520
3  195 542 594
3  591 277 590
3  195 579 580
3  593 305 547
3  593 547 304
3  664 39 87
3  34 664 87
3  34 87 86
3  34 86 62
3  427 604 620
3  148 593 304
3  148 304 512
3  256 510 512
3  583 195 594
3  191 583 594
3  256 511 510
3  381 380 247
3  477 597 345
3  477 345 488
3  477 341 597
3  391 244 623
3  391 623 389
3  599 234 67
3  600 599 67
3  234 233 91
3  223 91 233
3  45 223 233
3  45 233 90
3  234 90 233
3  153 51 600
3  153 600 156
3  267 603 604
3  626 603 267
3  156 600 67
3  407 239 449
3  266 605 451
3  451 605 265
3  605 159 265
3  458 459 382
3  185 607 184
3  7 607 185
3  179 561 557
3  179 676 561
3  360 258 616
3  400 259 399
3  361 399 259
3  89 90 632
3  238 655 237
3  238 237 610
3  338 615 472
3  382 444 458
3  606 617 242
3  242 617 450
3  302 301 619
3  470 619 284
3  619 301 546
3  284 619 546
3  470 302 619
3  671 374 649
3  226 680 238
3  226 238 668
3  467 680 227
3  426 621 481
3  426 425 578
3  184 678 78
3  93 678 184
3  186 624 185
3  670 376 249
3  651 653 167
3  660 393 430
3  277 627 626
3  277 626 267
3  499 351 202
3  500 351 499
3  197 373 372
3  630 372 373
3  630 373 379
3  281 346 661
3  661 171 435
3  661 435 282
3  346 171 661
3  317 171 346
3  101 635 11
3  125 635 141
3  636 234 91
3  67 234 636
3  67 250 156
3  647 262 126
3  457 200 322
3  457 322 637
3  368 367 638
3  638 367 369
3  125 262 647
3  640 238 610
3  640 610 53
3  166 306 669
3  168 669 306
3  639 161 640
3  639 640 53
3  639 53 250
3  642 300 303
3  300 642 301
3  149 301 642
3  242 445 643
3  663 592 593
3  663 593 148
3  274 194 255
3  674 274 255
3  486 487 342
3  362 644 354
3  645 354 644
3  77 646 101
3  77 624 646
3  101 141 635
3  101 646 141
3  646 105 141
3  624 105 646
3  624 186 105
3  675 412 276
3  648 647 126
3  124 125 647
3  124 647 648
3  230 650 82
3  82 650 219
3  291 155 281
3  230 168 650
3  353 614 654
3  355 614 353
3  105 186 652
3  105 142 141
3  142 103 141
3  105 102 142
3  105 652 102
3  167 653 312
3  353 654 625
3  654 211 625
3  340 576 575
3  654 474 211
3  475 211 474
3  222 656 235
3  656 218 235
3  27 222 221
3  27 656 222
3  27 504 656
3  657 469 615
3  338 657 615
3  468 657 613
3  338 613 657
3  560 285 468
3  469 657 468
3  469 468 285
3  557 285 560
3  393 660 342
3  660 484 342
3  272 369 370
3  371 369 272
3  559 667 503
3  203 503 667
3  203 667 613
3  250 53 251
3  183 471 681
3  183 472 471
3  166 669 71
3  71 669 230
3  669 168 230
3  197 480 671
3  197 671 373
3  671 649 373
3  111 533 672
3  111 532 533
3  549 672 188
3  549 102 672
3  683 495 323
3  683 201 495
3  321 683 323
3  276 275 673
3  276 673 190
3  580 585 190
3  274 673 627
3  627 673 275
3  676 403 562
3  676 562 561
3  584 190 673
3  585 675 276
3  424 675 585
3  531 677 106
3  677 263 106
3  532 550 254
3  531 532 254
3  531 254 677
3  550 678 254
3  550 78 678
3  648 254 678
3  648 678 93
3  681 403 676
3  682 275 276
3  682 268 603
3  275 682 603
3  682 276 412
3  268 682 412

